<?xml version="1.0" encoding="UTF-8"?><svg id="Laag_2" xmlns="http://www.w3.org/2000/svg" viewBox="0 0 81.97 27.34"><g id="Laag_1-2"><g><path d="m81.97,20.2c-3.09-1.62-6.14-3.3-9.22-4.95-.16.1-.3.18-.44.27-1.17.73-2.34,1.47-3.52,2.2-.09.06-.2.12-.29.18-.17.13-.33.12-.5.02-.25-.13-.5-.25-.75-.39-1.27-.75-2.56-1.5-3.83-2.26-3.08-1.84-6.15-3.7-9.23-5.55-.77-.46-1.57-.89-2.37-1.32-.21-.12-.43-.24-.7-.29-.07.12-.15.22-.21.33-.88,1.58-1.76,3.17-2.65,4.75-.13.22-.18.45-.18.7.01.66.01,1.32,0,1.98,0,.28.05.55.14.82.54,1.52,1.07,3.04,1.6,4.57.07.2.13.4.21.62-.21.11-.42.11-.63.14-1.49.18-2.97.35-4.46.53-.13,0-.25.05-.44.09.38.3.76.45,1.11.64.36.2.73.38,1.1.57.36.19.73.38,1.09.58.36.2.71.41,1.06.62-.18.31-1.25,1.53-1.99,2.29h-14.79c1.38-.41,2.77-.83,4.15-1.25.49-.14.98-.3,1.44-.44.13-.19.1-.38.12-.55.1-1.14.01-2.27-.11-3.4-.04-.38-.07-.76-.12-1.13-.02-.21.05-.39.12-.58.47-1.23.94-2.46,1.42-3.68.1-.28.23-.54.34-.81h.01s-.03-.06-.04-.09c.01.03.02.06.03.09-.06,0-.14-.02-.17.01-.12.13-.22.28-.33.43-2.03,2.87-4.07,5.75-6.11,8.62-.12.16-.24.32-.37.5-.48-.07-.95-.13-1.42-.2-.52-.07-1.04-.15-1.56-.23-.22-.04-.42,0-.62.11q-.98.55-1.72,1.44c-.32.38-.64.77-.96,1.16h-8.35c1.04-.97,2.08-1.95,3.13-2.93,2.45-2.28,4.89-4.55,7.34-6.84.23-.22.48-.38.78-.49.64-.22,1.27-.47,1.9-.7.3-.1.56-.26.8-.47l4.68-4.11c.09-.07.18-.14.26-.23.14-.13.29-.18.49-.18.72.01,1.45-.01,2.17.01.35.01.62-.09.89-.32,2.76-2.32,5.53-4.64,8.3-6.95.77-.65,1.54-1.29,2.31-1.94.1-.08.2-.16.33-.25.51.35.98.74,1.46,1.1.47.36.94.73,1.41,1.09.48.37.97.74,1.45,1.11.48.37.96.75,1.45,1.12.47.36.94.72,1.41,1.08.48.37.96.75,1.45,1.12.48.37.96.74,1.44,1.11.47.37.94.73,1.41,1.09.49.37.97.74,1.45,1.11.49.37.97.75,1.45,1.12.47.36.94.72,1.41,1.08.48.37.97.74,1.46,1.12.5-.3.93-.66,1.38-.98.44-.32.87-.65,1.3-.98.45-.33.9-.66,1.37-1.01.11.07.2.12.29.19,3,2.53,6,5.05,9.01,7.57.06.06.12.13.16.22Z"/><path d="m42.89,7.25c-.31.32-2.38,2.08-2.87,2.43-.16,0-.22-.12-.31-.21-1.16-1.17-2.32-2.34-3.48-3.51-.12-.11-.24-.22-.36-.34q-.19.4-.59.72s-.06.04-.08.06c-2.24,1.66-4.31,3.52-6.32,5.45-.88.84-1.76,1.68-2.65,2.52-.27.25-.49.52-.68.84-.78,1.33-1.58,2.66-2.36,3.99-.15.25-.33.44-.57.6-1.39.89-2.76,1.8-4.14,2.7-.12.07-.25.14-.41.16.09-.11.17-.22.27-.32.81-.84,1.63-1.68,2.45-2.51.2-.21.34-.43.45-.7.49-1.26.99-2.51,1.49-3.76.06-.13.1-.27.16-.45-.2.03-.29.16-.39.25-1.43,1.28-2.88,2.56-4.3,3.86-.35.32-.71.53-1.2.6-1.25.17-2.5.41-3.75.6-.38.05-.76.02-1.14.02-.81.01-.58-.1-1.16.47-2.27,2.2-4.53,4.41-6.8,6.61h-.01s-4.14.01-4.14.01c.02-.02.04-.04.06-.06,4.03-4.03,8.06-8.06,12.09-12.09.53-.53.33-.43,1.07-.43,1.37-.01,2.74-.01,4.11-.01h.34c.14.01.25-.04.35-.15.13-.13.26-.25.39-.38,2.1-2.09,4.2-4.18,6.31-6.26.58-.57.33-.47,1.16-.48.36,0,.72-.01,1.08,0,.27.02.47-.08.67-.26,1.11-1,2.22-2,3.34-3,1.45-1.3,2.89-2.6,4.34-3.9.12-.11.25-.21.38-.32.07.05.13.08.17.12,2.34,2.37,4.67,4.74,7.03,7.13Z"/></g></g></svg>